<svg width="228" height="339" viewBox="0 0 228 339" fill="none" xmlns="http://www.w3.org/2000/svg">
<rect x="114.024" y="0.133667" width="10" height="160" rx="5" transform="rotate(45 114.024 0.133667)" fill="black"/>
<rect x="106.887" y="7.20471" width="10" height="160" rx="5" transform="rotate(-45 106.887 7.20471)" fill="black"/>
<path d="M90.0434 106.446H119.95V108.837C119.95 114.274 119.309 119.087 118.028 123.274C116.778 127.149 114.668 130.774 111.7 134.149C104.981 141.712 96.434 145.493 86.059 145.493C75.934 145.493 67.2621 141.837 60.0434 134.524C52.8246 127.181 49.2152 118.368 49.2152 108.087C49.2152 97.5868 52.8871 88.6805 60.2309 81.368C67.5746 74.0243 76.5121 70.3524 87.0434 70.3524C92.6996 70.3524 97.9809 71.5087 102.887 73.8212C107.575 76.1337 112.184 79.8837 116.715 85.0712L108.934 92.5243C102.996 84.618 95.7621 80.6649 87.2309 80.6649C79.5746 80.6649 73.1527 83.3055 67.9652 88.5868C62.7777 93.7743 60.184 100.274 60.184 108.087C60.184 116.149 63.0746 122.79 68.8559 128.009C74.2621 132.852 80.1215 135.274 86.434 135.274C91.809 135.274 96.6371 133.462 100.918 129.837C105.2 126.181 107.59 121.806 108.09 116.712H90.0434V106.446ZM165.371 98.4774H175.965V144.134H165.371V139.352C161.028 143.415 156.356 145.446 151.356 145.446C145.043 145.446 139.825 143.165 135.7 138.602C131.606 133.946 129.559 128.134 129.559 121.165C129.559 114.321 131.606 108.618 135.7 104.056C139.793 99.493 144.918 97.2118 151.075 97.2118C156.387 97.2118 161.153 99.3993 165.371 103.774V98.4774ZM140.34 121.165C140.34 125.54 141.512 129.102 143.856 131.852C146.262 134.634 149.293 136.024 152.95 136.024C156.856 136.024 160.012 134.681 162.418 131.993C164.825 129.212 166.028 125.681 166.028 121.399C166.028 117.118 164.825 113.587 162.418 110.806C160.012 108.087 156.887 106.727 153.043 106.727C149.418 106.727 146.387 108.102 143.95 110.852C141.543 113.634 140.34 117.071 140.34 121.165ZM92.059 158.962V238.134H81.5121V158.962H92.059ZM146.996 217.79H114.278C114.559 221.54 115.778 224.524 117.934 226.743C120.09 228.931 122.856 230.024 126.231 230.024C128.856 230.024 131.028 229.399 132.746 228.149C134.434 226.899 136.356 224.587 138.512 221.212L147.418 226.181C146.043 228.524 144.59 230.54 143.059 232.227C141.528 233.884 139.887 235.259 138.137 236.352C136.387 237.415 134.496 238.196 132.465 238.696C130.434 239.196 128.231 239.446 125.856 239.446C119.043 239.446 113.575 237.259 109.45 232.884C105.325 228.477 103.262 222.634 103.262 215.352C103.262 208.134 105.262 202.29 109.262 197.821C113.293 193.415 118.637 191.212 125.293 191.212C132.012 191.212 137.325 193.352 141.231 197.634C145.106 201.884 147.043 207.774 147.043 215.306L146.996 217.79ZM136.168 209.165C134.7 203.54 131.153 200.727 125.528 200.727C124.246 200.727 123.043 200.931 121.918 201.337C120.793 201.712 119.762 202.274 118.825 203.024C117.918 203.743 117.137 204.618 116.481 205.649C115.825 206.681 115.325 207.852 114.981 209.165H136.168ZM60.6059 286.477H71.1527V290.556C73.0902 288.524 74.809 287.134 76.309 286.384C77.8402 285.602 79.6527 285.212 81.7465 285.212C84.5277 285.212 87.434 286.118 90.4652 287.931L85.6371 297.587C83.6371 296.149 81.684 295.431 79.7777 295.431C74.0277 295.431 71.1527 299.774 71.1527 308.462V332.134H60.6059V286.477ZM108.559 286.477V332.134H98.0121V286.477H108.559ZM96.4184 267.493C96.4184 265.649 97.0902 264.056 98.434 262.712C99.7777 261.368 101.387 260.696 103.262 260.696C105.168 260.696 106.793 261.368 108.137 262.712C109.481 264.024 110.153 265.634 110.153 267.54C110.153 269.446 109.481 271.071 108.137 272.415C106.825 273.759 105.215 274.431 103.309 274.431C101.403 274.431 99.7777 273.759 98.434 272.415C97.0902 271.071 96.4184 269.431 96.4184 267.493ZM155.575 286.477H166.168V332.134H155.575V327.352C151.231 331.415 146.559 333.446 141.559 333.446C135.246 333.446 130.028 331.165 125.903 326.602C121.809 321.946 119.762 316.134 119.762 309.165C119.762 302.321 121.809 296.618 125.903 292.056C129.996 287.493 135.121 285.212 141.278 285.212C146.59 285.212 151.356 287.399 155.575 291.774V286.477ZM130.543 309.165C130.543 313.54 131.715 317.102 134.059 319.852C136.465 322.634 139.496 324.024 143.153 324.024C147.059 324.024 150.215 322.681 152.621 319.993C155.028 317.212 156.231 313.681 156.231 309.399C156.231 305.118 155.028 301.587 152.621 298.806C150.215 296.087 147.09 294.727 143.246 294.727C139.621 294.727 136.59 296.102 134.153 298.852C131.746 301.634 130.543 305.071 130.543 309.165Z" fill="black"/>
</svg>
