<svg width="80" height="80" viewBox="0 0 80 80" fill="none" xmlns="http://www.w3.org/2000/svg">
<path d="M49.1034 79.0805C49.2874 75.7701 51.3103 68.8429 52.7816 66.023C51.0038 66.4521 47.3379 67.4207 46.8965 67.8621C46.1609 69.3333 45.0575 76.4444 44.8736 79.8161L49.1034 79.0805Z" fill="#CB6024"/>
<path d="M15.696 40.3058C17.7495 39.5233 22.1925 39.4138 23.5366 45.2351C21.3016 45.9495 16.6045 45.9637 15.696 40.3058Z" fill="#CB6024"/>
<path d="M2.60967 36.1143C4.32087 34.7356 8.51256 33.2585 11.5898 38.3795C9.68491 39.7496 5.22209 41.2146 2.60967 36.1143Z" fill="#CB6024"/>
<path d="M64.3138 40.1659C62.2603 39.3834 57.8173 39.2739 56.4732 45.0952C58.7082 45.8095 63.4053 45.8238 64.3138 40.1659Z" fill="#CB6024"/>
<path d="M77.4002 35.9744C75.689 34.5957 71.4973 33.1185 68.4201 38.2396C70.3249 39.6097 74.7877 41.0747 77.4002 35.9744Z" fill="#CB6024"/>
<path d="M60.8736 55.7241H54.6207C61.4253 47.2644 72.5824 43.8927 80 43.4023L79.2644 47.8161C72.7908 47.0805 64.3065 52.7816 60.8736 55.7241Z" fill="#CB6024"/>
<path d="M19.1264 55.9081H25.3793C18.5747 47.4483 7.41762 44.0766 0 43.5862L0.735632 48C7.20919 47.2644 15.6935 52.9655 19.1264 55.9081Z" fill="#CB6024"/>
<path d="M3.49425 55.9081C4.5977 54.0077 7.98161 51.1264 12.6897 54.8046C11.4023 56.7663 7.76092 59.7333 3.49425 55.9081Z" fill="#CB6024"/>
<path d="M41.0869 38.2158C42.5956 39.8135 44.3971 43.8764 39.5333 47.3459C38.018 45.5544 36.2074 41.2203 41.0869 38.2158Z" fill="#CB6024"/>
<path d="M7.76105 15.783C9.95067 15.5969 14.2518 16.7162 13.9392 22.6826C11.5939 22.7532 7.07482 21.4722 7.76105 15.783Z" fill="#CB6024"/>
<path d="M42.4211 2.17755C44.5695 2.63974 48.3554 4.96769 46.3121 10.5819C44.0486 9.96376 40.1015 7.41747 42.4211 2.17755Z" fill="#CB6024"/>
<path d="M28.2134 8.05484C29.7221 9.65259 31.5236 13.7155 26.6597 17.185C25.1444 15.3935 23.3338 11.0594 28.2134 8.05484Z" fill="#CB6024"/>
<path d="M64.6271 8.42266C66.1359 10.0204 67.9374 14.0833 63.0735 17.5528C61.5582 15.7613 59.7476 11.4272 64.6271 8.42266Z" fill="#CB6024"/>
<path d="M43.2938 26.0778C44.8025 27.6756 46.604 31.7384 41.7402 35.208C40.2249 33.4165 38.4143 29.0824 43.2938 26.0778Z" fill="#CB6024"/>
<path d="M76.6897 55.9081C75.5862 54.0077 72.2023 51.1264 67.4943 54.8046C68.7816 56.7663 72.423 59.7333 76.6897 55.9081Z" fill="#CB6024"/>
<path d="M38.4368 60.5058L34.023 57.931C33.6552 48.9195 22.8046 29.0575 1.47126 29.4253L2.60967 25.0115C6.43678 24.6437 15.1201 26.9241 18.9425 29.4253C16.3678 22.069 16.1839 13.7931 17.6552 6.62069L23.1724 3.31035C20.4138 11.0345 19.4575 27.1448 28.1379 35.6782C28.1379 27.5862 29.7931 19.3103 35.4942 11.4023C34.2069 9.01149 31.5954 3.49425 31.4483 0.551724L35.8621 0C37.8851 9.56322 46.7126 20.2299 54.4368 22.069C54.9885 17.1034 52.2667 5.4069 47.2644 0.551724L53.5172 2.02299C59.0345 8.82759 59.9172 27.1816 57.5632 31.4483C61.7931 29.0575 68.9287 18.9057 69.5172 12.8736L72.8276 16.7356C72.4598 18.2682 71.1724 22.2529 68.9655 25.931C71.4009 25.4406 76.4973 24.5701 77.4002 25.0115L78.7126 29.4253C69.5172 29.0575 49.8391 34.7586 45.977 57.931L41.3793 60.5058C41.3793 55.7241 43.2184 48.1839 46.3448 43.4023C48.8582 40.2759 53.8851 32.6253 53.8851 27.0345C49.9004 25.1341 41.2322 20.1195 38.4368 15.2644C34.3908 19.6782 30.7126 31.0805 33.6552 43.4023C36.046 48 38.6207 56.4598 38.4368 60.5058Z" fill="#CB6024"/>
<path d="M9.56322 66.023C28.3218 57.7471 36.4138 67.4942 39.908 69.5172C49.4713 60.1011 64.3678 62.5287 70.2529 65.8391L73.0115 62.8966C65.2874 55.5402 46.1609 58.1149 39.908 64C33.8759 58.1149 15.0805 55.5402 6.80459 62.8966L9.56322 66.023Z" fill="#CB6024"/>
<path d="M30.7126 78.8966C30.5287 75.5862 28.5057 68.659 27.0345 65.8391C28.8123 66.2682 32.4782 67.2368 32.9195 67.6782C33.6552 69.1494 34.7586 76.2605 34.9425 79.6322L30.7126 78.8966Z" fill="#CB6024"/>
<path d="M37.8851 80V70.9885L40.092 72.4598L42.1149 70.9885V80H37.8851Z" fill="#CB6024"/>
<path d="M49.1034 79.0805C49.2874 75.7701 51.3103 68.8429 52.7816 66.023C51.0038 66.4521 47.3379 67.4207 46.8965 67.8621C46.1609 69.3333 45.0575 76.4444 44.8736 79.8161L49.1034 79.0805Z"  />
<path d="M15.696 40.3058C17.7495 39.5233 22.1925 39.4138 23.5366 45.2351C21.3016 45.9495 16.6045 45.9637 15.696 40.3058Z"  />
<path d="M2.60967 36.1143C4.32087 34.7356 8.51256 33.2585 11.5898 38.3795C9.68491 39.7496 5.22209 41.2146 2.60967 36.1143Z"  />
<path d="M64.3138 40.1659C62.2603 39.3834 57.8173 39.2739 56.4732 45.0952C58.7082 45.8095 63.4053 45.8238 64.3138 40.1659Z"  />
<path d="M77.4002 35.9744C75.689 34.5957 71.4973 33.1185 68.4201 38.2396C70.3249 39.6097 74.7877 41.0747 77.4002 35.9744Z"  />
<path d="M60.8736 55.7241H54.6207C61.4253 47.2644 72.5824 43.8927 80 43.4023L79.2644 47.8161C72.7908 47.0805 64.3065 52.7816 60.8736 55.7241Z"  />
<path d="M19.1264 55.9081H25.3793C18.5747 47.4483 7.41762 44.0766 0 43.5862L0.735632 48C7.20919 47.2644 15.6935 52.9655 19.1264 55.9081Z"  />
<path d="M3.49425 55.9081C4.5977 54.0077 7.98161 51.1264 12.6897 54.8046C11.4023 56.7663 7.76092 59.7333 3.49425 55.9081Z"  />
<path d="M41.0869 38.2158C42.5956 39.8135 44.3971 43.8764 39.5333 47.3459C38.018 45.5544 36.2074 41.2203 41.0869 38.2158Z"  />
<path d="M7.76105 15.783C9.95067 15.5969 14.2518 16.7162 13.9392 22.6826C11.5939 22.7532 7.07482 21.4722 7.76105 15.783Z"  />
<path d="M42.4211 2.17755C44.5695 2.63974 48.3554 4.96769 46.3121 10.5819C44.0486 9.96376 40.1015 7.41747 42.4211 2.17755Z"  />
<path d="M28.2134 8.05484C29.7221 9.65259 31.5236 13.7155 26.6597 17.185C25.1444 15.3935 23.3338 11.0594 28.2134 8.05484Z"  />
<path d="M64.6271 8.42266C66.1359 10.0204 67.9374 14.0833 63.0735 17.5528C61.5582 15.7613 59.7476 11.4272 64.6271 8.42266Z"  />
<path d="M43.2938 26.0778C44.8025 27.6756 46.604 31.7384 41.7402 35.208C40.2249 33.4165 38.4143 29.0824 43.2938 26.0778Z"  />
<path d="M76.6897 55.9081C75.5862 54.0077 72.2023 51.1264 67.4943 54.8046C68.7816 56.7663 72.423 59.7333 76.6897 55.9081Z"  />
<path d="M38.4368 60.5058L34.023 57.931C33.6552 48.9195 22.8046 29.0575 1.47126 29.4253L2.60967 25.0115C6.43678 24.6437 15.1201 26.9241 18.9425 29.4253C16.3678 22.069 16.1839 13.7931 17.6552 6.62069L23.1724 3.31035C20.4138 11.0345 19.4575 27.1448 28.1379 35.6782C28.1379 27.5862 29.7931 19.3103 35.4942 11.4023C34.2069 9.01149 31.5954 3.49425 31.4483 0.551724L35.8621 0C37.8851 9.56322 46.7126 20.2299 54.4368 22.069C54.9885 17.1034 52.2667 5.4069 47.2644 0.551724L53.5172 2.02299C59.0345 8.82759 59.9172 27.1816 57.5632 31.4483C61.7931 29.0575 68.9287 18.9057 69.5172 12.8736L72.8276 16.7356C72.4598 18.2682 71.1724 22.2529 68.9655 25.931C71.4009 25.4406 76.4973 24.5701 77.4002 25.0115L78.7126 29.4253C69.5172 29.0575 49.8391 34.7586 45.977 57.931L41.3793 60.5058C41.3793 55.7241 43.2184 48.1839 46.3448 43.4023C48.8582 40.2759 53.8851 32.6253 53.8851 27.0345C49.9004 25.1341 41.2322 20.1195 38.4368 15.2644C34.3908 19.6782 30.7126 31.0805 33.6552 43.4023C36.046 48 38.6207 56.4598 38.4368 60.5058Z"  />
<path d="M9.56322 66.023C28.3218 57.7471 36.4138 67.4942 39.908 69.5172C49.4713 60.1011 64.3678 62.5287 70.2529 65.8391L73.0115 62.8966C65.2874 55.5402 46.1609 58.1149 39.908 64C33.8759 58.1149 15.0805 55.5402 6.80459 62.8966L9.56322 66.023Z"  />
<path d="M30.7126 78.8966C30.5287 75.5862 28.5057 68.659 27.0345 65.8391C28.8123 66.2682 32.4782 67.2368 32.9195 67.6782C33.6552 69.1494 34.7586 76.2605 34.9425 79.6322L30.7126 78.8966Z"  />
<path d="M37.8851 80V70.9885L40.092 72.4598L42.1149 70.9885V80H37.8851Z"  />
</svg>
