<svg width="346" height="346" viewBox="0 0 346 346" fill="none" xmlns="http://www.w3.org/2000/svg">
<path d="M212.372 342.023C213.168 327.706 221.917 297.746 228.28 285.549C220.592 287.405 204.737 291.594 202.828 293.503C199.646 299.867 194.874 330.622 194.078 345.205L212.372 342.023Z" fill="#CB6024"/>
<path d="M67.8852 174.323C76.7666 170.938 95.9826 170.465 101.796 195.642C92.1295 198.731 71.8145 198.793 67.8852 174.323Z" fill="#CB6024"/>
<path d="M11.2868 156.195C18.6877 150.232 36.8168 143.843 50.1257 165.991C41.8872 171.917 22.5855 178.253 11.2868 156.195Z" fill="#CB6024"/>
<path d="M278.157 173.717C269.276 170.333 250.06 169.859 244.247 195.037C253.913 198.126 274.228 198.188 278.157 173.717Z" fill="#CB6024"/>
<path d="M334.756 155.589C327.355 149.626 309.226 143.238 295.917 165.386C304.155 171.312 323.457 177.648 334.756 155.589Z" fill="#CB6024"/>
<path d="M263.278 241.007H236.234C265.664 204.418 313.919 189.836 346 187.715L342.818 206.805C314.82 203.623 278.126 228.28 263.278 241.007Z" fill="#CB6024"/>
<path d="M82.7218 241.802H109.766C80.3356 205.214 32.0812 190.631 0 188.51L3.18161 207.6C31.1798 204.418 67.8743 229.076 82.7218 241.802Z" fill="#CB6024"/>
<path d="M15.1126 241.802C19.885 233.583 34.5204 221.122 54.8827 237.03C49.3149 245.514 33.566 258.347 15.1126 241.802Z" fill="#CB6024"/>
<path d="M177.701 165.283C184.226 172.193 192.018 189.765 170.981 204.771C164.428 197.023 156.597 178.278 177.701 165.283Z" fill="#CB6024"/>
<path d="M33.5665 68.2616C43.0366 67.4566 61.6389 72.2978 60.2871 98.1021C50.1436 98.4076 30.5986 92.8672 33.5665 68.2616Z" fill="#CB6024"/>
<path d="M183.471 9.41792C192.763 11.4169 209.137 21.4852 200.3 45.7668C190.51 43.0933 173.439 32.0806 183.471 9.41792Z" fill="#CB6024"/>
<path d="M122.023 34.8372C128.548 41.7474 136.339 59.3194 115.303 74.325C108.75 66.5768 100.919 47.8317 122.023 34.8372Z" fill="#CB6024"/>
<path d="M279.512 36.428C286.038 43.3382 293.829 60.9102 272.793 75.9158C266.239 68.1676 258.408 49.4226 279.512 36.428Z" fill="#CB6024"/>
<path d="M187.246 112.787C193.771 119.697 201.562 137.269 180.526 152.274C173.973 144.526 166.142 125.781 187.246 112.787Z" fill="#CB6024"/>
<path d="M331.683 241.802C326.91 233.583 312.275 221.122 291.913 237.03C297.48 245.514 313.229 258.347 331.683 241.802Z" fill="#CB6024"/>
<path d="M166.239 261.687L147.149 250.552C145.559 211.577 98.6299 125.674 6.36321 127.264L11.2868 108.175C27.8391 106.584 65.3946 116.447 81.9264 127.264C70.7908 95.4483 69.9954 59.6552 76.3586 28.6345L100.221 14.3172C88.2896 47.7241 84.1536 117.401 121.697 154.308C121.697 119.31 128.855 83.5172 153.513 49.3149C147.945 38.9747 136.65 15.1126 136.014 2.38621L155.103 0C163.853 41.3609 202.032 87.4943 235.439 95.4483C237.825 73.9724 226.053 23.3848 204.418 2.38621L231.462 8.74943C255.324 38.1793 259.142 117.56 248.961 136.014C267.255 125.674 298.117 81.7674 300.662 55.6782L314.979 72.3816C313.389 79.01 307.821 96.2437 298.276 112.152C308.809 110.031 330.851 106.266 334.756 108.175L340.432 127.264C300.662 125.674 215.554 150.331 198.851 250.552L178.966 261.687C178.966 241.007 186.92 208.395 200.441 187.715C211.312 174.193 233.053 141.104 233.053 116.924C215.819 108.705 178.329 87.017 166.239 66.0184C148.74 85.1081 132.832 134.423 145.559 187.715C155.899 207.6 167.034 244.189 166.239 261.687Z" fill="#CB6024"/>
<path d="M41.3609 285.549C122.492 249.756 157.49 291.913 172.602 300.662C213.963 259.937 278.391 270.437 303.844 284.754L315.775 272.028C282.368 240.211 199.646 251.347 172.602 276.8C146.513 251.347 65.223 240.212 29.4299 272.028L41.3609 285.549Z" fill="#CB6024"/>
<path d="M132.832 341.228C132.037 326.91 123.287 296.95 116.924 284.754C124.613 286.61 140.468 290.799 142.377 292.708C145.559 299.071 150.331 329.827 151.126 344.409L132.832 341.228Z" fill="#CB6024"/>
<path d="M163.853 346V307.025L173.398 313.388L182.147 307.025V346H163.853Z" fill="#CB6024"/>
<path d="M212.372 342.023C213.168 327.706 221.917 297.746 228.28 285.549C220.592 287.405 204.737 291.594 202.828 293.503C199.646 299.867 194.874 330.622 194.078 345.205L212.372 342.023Z"  />
<path d="M67.8852 174.323C76.7666 170.938 95.9826 170.465 101.796 195.642C92.1295 198.731 71.8145 198.793 67.8852 174.323Z"  />
<path d="M11.2868 156.195C18.6877 150.232 36.8168 143.843 50.1257 165.991C41.8872 171.917 22.5855 178.253 11.2868 156.195Z"  />
<path d="M278.157 173.717C269.276 170.333 250.06 169.859 244.247 195.037C253.913 198.126 274.228 198.188 278.157 173.717Z"  />
<path d="M334.756 155.589C327.355 149.626 309.226 143.238 295.917 165.386C304.155 171.312 323.457 177.648 334.756 155.589Z"  />
<path d="M263.278 241.007H236.234C265.664 204.418 313.919 189.836 346 187.715L342.818 206.805C314.82 203.623 278.126 228.28 263.278 241.007Z"  />
<path d="M82.7218 241.802H109.766C80.3356 205.214 32.0812 190.631 0 188.51L3.18161 207.6C31.1798 204.418 67.8743 229.076 82.7218 241.802Z"  />
<path d="M15.1126 241.802C19.885 233.583 34.5204 221.122 54.8827 237.03C49.3149 245.514 33.566 258.347 15.1126 241.802Z"  />
<path d="M177.701 165.283C184.226 172.193 192.018 189.765 170.981 204.771C164.428 197.023 156.597 178.278 177.701 165.283Z"  />
<path d="M33.5665 68.2616C43.0366 67.4566 61.6389 72.2978 60.2871 98.1021C50.1436 98.4076 30.5986 92.8672 33.5665 68.2616Z"  />
<path d="M183.471 9.41792C192.763 11.4169 209.137 21.4852 200.3 45.7668C190.51 43.0933 173.439 32.0806 183.471 9.41792Z"  />
<path d="M122.023 34.8372C128.548 41.7474 136.339 59.3194 115.303 74.325C108.75 66.5768 100.919 47.8317 122.023 34.8372Z"  />
<path d="M279.512 36.428C286.038 43.3382 293.829 60.9102 272.793 75.9158C266.239 68.1676 258.408 49.4226 279.512 36.428Z"  />
<path d="M187.246 112.787C193.771 119.697 201.562 137.269 180.526 152.274C173.973 144.526 166.142 125.781 187.246 112.787Z"  />
<path d="M331.683 241.802C326.91 233.583 312.275 221.122 291.913 237.03C297.48 245.514 313.229 258.347 331.683 241.802Z"  />
<path d="M166.239 261.687L147.149 250.552C145.559 211.577 98.6299 125.674 6.36321 127.264L11.2868 108.175C27.8391 106.584 65.3946 116.447 81.9264 127.264C70.7908 95.4483 69.9954 59.6552 76.3586 28.6345L100.221 14.3172C88.2896 47.7241 84.1536 117.401 121.697 154.308C121.697 119.31 128.855 83.5172 153.513 49.3149C147.945 38.9747 136.65 15.1126 136.014 2.38621L155.103 0C163.853 41.3609 202.032 87.4943 235.439 95.4483C237.825 73.9724 226.053 23.3848 204.418 2.38621L231.462 8.74943C255.324 38.1793 259.142 117.56 248.961 136.014C267.255 125.674 298.117 81.7674 300.662 55.6782L314.979 72.3816C313.389 79.01 307.821 96.2437 298.276 112.152C308.809 110.031 330.851 106.266 334.756 108.175L340.432 127.264C300.662 125.674 215.554 150.331 198.851 250.552L178.966 261.687C178.966 241.007 186.92 208.395 200.441 187.715C211.312 174.193 233.053 141.104 233.053 116.924C215.819 108.705 178.329 87.017 166.239 66.0184C148.74 85.1081 132.832 134.423 145.559 187.715C155.899 207.6 167.034 244.189 166.239 261.687Z"  />
<path d="M41.3609 285.549C122.492 249.756 157.49 291.913 172.602 300.662C213.963 259.937 278.391 270.437 303.844 284.754L315.775 272.028C282.368 240.211 199.646 251.347 172.602 276.8C146.513 251.347 65.223 240.212 29.4299 272.028L41.3609 285.549Z"  />
<path d="M132.832 341.228C132.037 326.91 123.287 296.95 116.924 284.754C124.613 286.61 140.468 290.799 142.377 292.708C145.559 299.071 150.331 329.827 151.126 344.409L132.832 341.228Z"  />
<path d="M163.853 346V307.025L173.398 313.388L182.147 307.025V346H163.853Z"  />
</svg>
